# xmcd
#
# Track frame offsets: 
#        183
#        16510
#        29030
#        37418
#        50590
#        69083
#        85090
#        98530
#        110288
#        123475
#        134135
#        152740
#        166033
#        182213
#        193620
#        209083
#        221905
#        232813
#
# Disc length: 3257 seconds
#
# Revision: 2
# Processed by: cddbd v1.5.2PL0 Copyright (c) Steve Scherf et al.
# Submitted via: ExactAudioCopyFreeDBPlugin 1.0
#
DISCID=fc0cb712
DTITLE=fausto papetti - Fausto Papetti All Time Favorites
DYEAR=1990
DGENRE=Classical
TTITLE0=petite fleur
TTITLE1=douche france
TTITLE2=hello dolly
TTITLE3=stranger on the shore
TTITLE4=samba pa ti
TTITLE5=la mer
TTITLE6=a whiter shade of pale
TTITLE7=georgia on my mind
TTITLE8=arrivederci roma
TTITLE9=brazil
TTITLE10=my way
TTITLE11=el condor pasa
TTITLE12=concerto 2
TTITLE13=wonderland by night
TTITLE14=el tinto
TTITLE15=saint louis blues
TTITLE16=summertime
TTITLE17=arrivederci
EXTD=
EXTT0=
EXTT1=
EXTT2=
EXTT3=
EXTT4=
EXTT5=
EXTT6=
EXTT7=
EXTT8=
EXTT9=
EXTT10=
EXTT11=
EXTT12=
EXTT13=
EXTT14=
EXTT15=
EXTT16=
EXTT17=
PLAYORDER=
